<?xml version="1.0" standalone="no"?>
<!DOCTYPE svg PUBLIC "-//W3C//DTD SVG 20010904//EN"
 "http://www.w3.org/TR/2001/REC-SVG-20010904/DTD/svg10.dtd">
<svg version="1.0" xmlns="http://www.w3.org/2000/svg"
 width="1200.000000pt" height="1200.000000pt" viewBox="0 0 1200.000000 1200.000000"
 preserveAspectRatio="xMidYMid meet">
<metadata>
Created by potrace 1.14, written by Peter Selinger 2001-2017
</metadata>
<g transform="translate(0.000000,1200.000000) scale(0.100000,-0.100000)"
fill="#000000" stroke="none">
<path d="M6648 10105 c-6 -10 -3 -232 6 -393 l4 -74 -47 7 c-25 3 -62 9 -81
11 -19 3 -46 7 -60 9 -29 5 -128 14 -215 20 -82 6 -450 6 -505 0 -25 -2 -74
-7 -108 -10 -137 -11 -389 -54 -537 -92 -33 -8 -67 -17 -75 -19 -38 -8 -284
-86 -298 -94 -10 -4 -55 -23 -102 -40 -312 -118 -674 -331 -979 -577 l-53 -43
-47 27 c-141 82 -455 312 -511 374 -22 24 -58 32 -88 20 -21 -9 -38 -35 -77
-119 -27 -59 -75 -161 -106 -227 -31 -66 -69 -147 -84 -180 -16 -33 -57 -120
-92 -194 -34 -73 -63 -135 -63 -137 0 -1 -34 -73 -75 -159 -41 -86 -75 -158
-75 -160 0 -2 -29 -63 -64 -137 -35 -73 -77 -162 -94 -198 -40 -87 -91 -195
-144 -310 -25 -52 -58 -122 -73 -155 -26 -56 -80 -171 -155 -329 -82 -175
-100 -218 -100 -239 0 -27 117 -171 271 -331 68 -72 103 -116 102 -128 -3 -22
-21 -60 -184 -404 -45 -96 -43 -103 72 -238 55 -65 157 -173 225 -241 86 -85
127 -133 130 -152 9 -54 85 -325 118 -421 104 -306 247 -594 429 -867 44 -66
83 -122 86 -125 3 -3 26 -32 50 -65 116 -156 370 -428 510 -545 29 -25 65 -55
80 -68 160 -139 466 -339 691 -451 96 -48 300 -138 355 -157 6 -2 62 -22 125
-44 221 -76 492 -139 705 -165 28 -3 64 -8 80 -10 191 -25 692 -25 824 0 9 1
41 6 72 9 31 4 66 8 77 11 11 2 37 6 58 10 190 30 554 126 679 180 17 7 50 20
75 30 25 9 91 37 148 62 l103 46 32 -23 c144 -105 438 -387 597 -572 74 -88
97 -108 119 -108 27 0 71 24 71 40 0 5 25 62 56 127 109 230 127 268 129 273
2 7 64 139 260 555 26 55 76 163 112 240 36 77 92 195 124 263 33 68 59 125
59 127 0 1 34 73 75 160 41 86 75 158 75 159 0 2 27 59 59 127 32 68 91 194
131 279 40 85 90 193 112 240 79 166 130 276 155 330 14 30 54 115 89 189 35
73 64 134 64 136 0 2 30 65 66 141 36 77 95 202 131 279 36 77 74 158 84 179
21 44 24 69 9 95 -11 22 -167 149 -305 250 -55 40 -101 77 -103 82 -2 4 15 48
39 96 23 48 53 113 66 143 14 30 54 115 89 188 36 75 64 146 64 164 0 32 -8
41 -100 116 -25 20 -47 40 -50 43 -23 25 -389 283 -429 301 -3 2 -17 30 -30
63 -25 62 -38 94 -87 205 -37 84 -141 287 -165 322 -11 14 -19 29 -19 33 0 8
-185 288 -210 319 -10 12 -57 71 -106 131 -113 142 -238 275 -392 417 l-61 56
44 118 c44 120 48 158 13 113 -11 -13 -31 -36 -44 -51 -13 -15 -39 -47 -57
-71 l-34 -44 -89 69 c-135 104 -354 248 -479 314 -23 12 -23 7 5 182 6 41 9
76 6 79 -3 3 -28 -41 -56 -98 -28 -57 -52 -104 -54 -106 -2 -2 -43 16 -92 39
-88 42 -110 52 -229 101 -130 54 -367 127 -534 166 -45 11 -85 21 -87 24 -4 3
-30 133 -40 197 -3 19 -9 51 -14 70 -5 19 -11 53 -15 75 -11 76 -31 150 -37
140z"/>
<path d="M9336 8658 c-16 -13 -55 -48 -88 -78 -47 -44 -59 -62 -62 -90 -5 -56
8 -80 40 -74 57 10 81 39 114 139 38 115 37 136 -4 103z"/>
</g>
</svg>
